<?xml version="1.0" standalone="no"?>
<!DOCTYPE svg PUBLIC "-//W3C//DTD SVG 20010904//EN"
 "http://www.w3.org/TR/2001/REC-SVG-20010904/DTD/svg10.dtd">
<svg version="1.0" xmlns="http://www.w3.org/2000/svg"
 width="99.000000pt" height="138.000000pt" viewBox="0 0 99.000000 138.000000"
 preserveAspectRatio="xMidYMid meet">

<g transform="translate(0.000000,138.000000) scale(0.100000,-0.100000)"
fill="#000000" stroke="none">
<path d="M102 1312 c-7 -5 -14 -22 -15 -38 -2 -26 1 -29 26 -26 23 3 27 0 27
-23 0 -33 -26 -43 -46 -19 -15 18 -15 18 -10 1 3 -10 6 -21 6 -23 0 -2 11 -4
25 -4 35 0 51 34 30 66 -9 14 -21 23 -28 22 -13 -3 -17 3 -17 22 0 14 37 12
43 -2 4 -8 6 -7 6 3 1 9 -6 20 -15 23 -19 7 -16 7 -32 -2z"/>
<path d="M216 1248 c-9 -12 -16 -32 -16 -43 1 -33 35 -98 70 -130 l32 -30 38
43 c55 64 69 129 37 170 -15 19 -44 14 -61 -10 l-16 -22 -16 22 c-8 12 -24 22
-34 22 -10 0 -26 -10 -34 -22z"/>
<path d="M703 1258 c-34 -44 -19 -112 38 -172 l39 -41 40 44 c51 55 68 107 49
147 -17 36 -52 43 -71 15 -15 -21 -15 -21 -33 -1 -21 23 -48 26 -62 8z"/>
<path d="M77 1153 c-14 -14 -6 -53 16 -79 l23 -27 22 28 c34 43 24 106 -13 75
-9 -7 -15 -8 -20 0 -7 12 -19 13 -28 3z"/>
<path d="M456 798 c-31 -44 -12 -109 50 -169 l36 -34 34 40 c42 48 56 79 56
123 0 59 -41 81 -77 42 l-18 -20 -14 20 c-19 26 -48 25 -67 -2z"/>
<path d="M265 296 c-46 -56 -61 -106 -43 -144 17 -36 63 -43 73 -12 l7 22 23
-22 c48 -46 98 8 76 82 -12 37 -74 118 -91 118 -5 0 -25 -20 -45 -44z"/>
<path d="M752 303 c-16 -21 -35 -49 -42 -62 -15 -30 -16 -87 0 -106 18 -22 57
-18 71 6 l11 21 14 -21 c41 -58 98 3 75 80 -11 38 -74 119 -91 119 -5 0 -22
-17 -38 -37z"/>
<path d="M911 304 c-23 -29 -26 -50 -11 -74 7 -12 12 -12 21 -3 9 9 16 9 25 2
38 -31 47 45 10 80 l-24 22 -21 -27z"/>
<path d="M916 194 c-10 -9 -16 -28 -14 -43 2 -20 9 -27 31 -29 19 -2 27 -9 27
-23 0 -22 -35 -27 -43 -6 -3 7 -6 5 -6 -5 -1 -13 7 -18 29 -18 28 0 30 3 30
35 0 32 -2 35 -24 29 -16 -4 -25 -1 -29 10 -9 24 3 46 24 46 10 0 19 -7 19
-15 0 -8 5 -15 11 -15 16 0 6 21 -18 37 -18 12 -23 12 -37 -3z"/>
</g>
</svg>
