<?xml version="1.0" standalone="no"?>
<!DOCTYPE svg PUBLIC "-//W3C//DTD SVG 20010904//EN"
 "http://www.w3.org/TR/2001/REC-SVG-20010904/DTD/svg10.dtd">
<svg version="1.0" xmlns="http://www.w3.org/2000/svg"
 width="99.000000pt" height="138.000000pt" viewBox="0 0 99.000000 138.000000"
 preserveAspectRatio="xMidYMid meet">

<g transform="translate(0.000000,138.000000) scale(0.100000,-0.100000)"
fill="#000000" stroke="none">
<path d="M77 1039 c-3 -163 -2 -261 5 -281 8 -22 7 -36 -2 -53 -11 -20 -11
-27 0 -40 9 -11 10 -25 2 -57 -7 -28 -9 -130 -5 -286 l6 -242 412 0 412 0 5
245 c4 164 2 257 -5 281 -8 27 -8 40 1 55 10 15 10 25 -2 46 -11 22 -11 32 -1
57 10 24 12 90 8 279 l-6 247 -412 0 -412 0 -6 -251z m92 164 c-10 -11 -14
-11 -20 -1 -10 17 -2 28 17 21 11 -4 12 -8 3 -20z m674 1 c-4 -11 -8 -12 -20
-3 -11 10 -11 14 -1 20 17 10 28 2 21 -17z m-383 -9 c0 -14 -4 -25 -10 -25
-11 0 -14 33 -3 43 11 11 13 8 13 -18z m30 -15 c0 -22 -4 -40 -10 -40 -5 0
-10 18 -10 40 0 22 5 40 10 40 6 0 10 -18 10 -40z m31 -4 c3 -32 1 -42 -8 -39
-15 6 -18 83 -4 83 5 0 11 -20 12 -44z m29 14 c0 -10 -4 -22 -10 -25 -6 -4
-10 7 -10 25 0 18 4 29 10 25 6 -3 10 -15 10 -25z m-350 -11 c0 -5 -10 -9 -21
-9 -18 0 -19 2 -9 15 12 15 30 12 30 -6z m620 0 c0 -5 -7 -9 -15 -9 -15 0 -20
12 -9 23 8 8 24 -1 24 -14z m-310 -244 c0 -8 -6 -15 -13 -15 -8 0 -14 7 -14
15 0 8 6 15 14 15 7 0 13 -7 13 -15z m7 -49 c-6 -17 -41 -13 -45 5 -2 13 3 15
23 11 14 -2 24 -10 22 -16z m63 15 c0 -12 -20 -25 -27 -18 -7 7 6 27 18 27 5
0 9 -4 9 -9z m-120 -41 c0 -5 -2 -10 -4 -10 -3 0 -8 5 -11 10 -3 6 -1 10 4 10
6 0 11 -4 11 -10z m47 -6 c-3 -3 -12 -4 -19 -1 -8 3 -5 6 6 6 11 1 17 -2 13
-5z m-287 -175 c0 -5 -4 -9 -10 -9 -5 0 -10 7 -10 16 0 8 5 12 10 9 6 -3 10
-10 10 -16z m570 6 c0 -8 -4 -15 -10 -15 -5 0 -10 7 -10 15 0 8 5 15 10 15 6
0 10 -7 10 -15z m-663 -1 c-3 -3 -12 -4 -19 -1 -8 3 -5 6 6 6 11 1 17 -2 13
-5z m760 0 c-3 -3 -12 -4 -19 -1 -8 3 -5 6 6 6 11 1 17 -2 13 -5z m-369 -207
c2 -12 -3 -15 -19 -12 -27 5 -33 11 -25 23 9 15 41 7 44 -11z m-80 1 c-6 -18
-28 -21 -28 -4 0 9 7 16 16 16 9 0 14 -5 12 -12z m69 -43 c0 -8 -6 -15 -14
-15 -7 0 -13 7 -13 15 0 8 6 15 13 15 8 0 14 -7 14 -15z m-17 -244 c0 -22 -4
-43 -10 -46 -6 -4 -10 12 -10 39 0 25 5 46 10 46 6 0 10 -18 10 -39z m30 -7
c0 -27 -4 -43 -10 -39 -5 3 -10 24 -10 46 0 21 5 39 10 39 6 0 10 -21 10 -46z
m-320 0 c0 -16 -16 -19 -25 -4 -8 13 4 32 16 25 5 -4 9 -13 9 -21z m350 -4 c0
-10 -4 -22 -10 -25 -6 -4 -10 7 -10 25 0 18 4 29 10 25 6 -3 10 -15 10 -25z
m-90 -5 c0 -14 -4 -25 -10 -25 -5 0 -10 11 -10 25 0 14 5 25 10 25 6 0 10 -11
10 -25z m352 10 c0 -5 -5 -11 -11 -13 -6 -2 -11 4 -11 13 0 9 5 15 11 13 6 -2
11 -8 11 -13z m-647 -38 c-20 -11 -27 -5 -19 17 5 13 9 14 21 5 12 -11 12 -14
-2 -22z m682 -3 c-2 -2 -12 -2 -21 2 -13 5 -14 9 -5 21 11 12 14 12 22 -2 5
-9 7 -19 4 -21z"/>
</g>
</svg>
