<?xml version="1.0" standalone="no"?>
<!DOCTYPE svg PUBLIC "-//W3C//DTD SVG 20010904//EN"
 "http://www.w3.org/TR/2001/REC-SVG-20010904/DTD/svg10.dtd">
<svg version="1.0" xmlns="http://www.w3.org/2000/svg"
 width="99.000000pt" height="137.000000pt" viewBox="0 0 99.000000 137.000000"
 preserveAspectRatio="xMidYMid meet">

<g transform="translate(0.000000,137.000000) scale(0.100000,-0.100000)"
fill="#000000" stroke="none">
<path d="M123 1204 c-1 -18 -8 -47 -16 -63 -14 -29 -14 -31 3 -31 13 0 17 5
13 20 -4 16 0 20 22 20 22 0 26 -4 22 -20 -4 -15 0 -20 14 -20 15 0 17 4 10
18 -17 30 -30 82 -25 95 3 8 -4 13 -19 13 -19 0 -23 -5 -24 -32z m36 -26 c1
-5 -5 -8 -13 -8 -9 0 -12 8 -8 27 5 25 6 25 13 8 4 -11 8 -23 8 -27z"/>
<path d="M91 1076 c-26 -31 25 -125 60 -111 19 7 49 58 49 82 0 10 -5 25 -10
33 -8 13 -12 13 -32 1 -16 -10 -23 -10 -26 -2 -5 15 -27 14 -41 -3z"/>
<path d="M455 736 c-19 -44 -5 -94 40 -141 29 -31 37 -35 54 -26 54 29 90 150
55 185 -20 21 -29 20 -52 -4 -18 -19 -18 -19 -35 0 -25 29 -46 24 -62 -14z"/>
<path d="M872 302 c-29 -41 -35 -73 -18 -97 14 -19 16 -19 32 -3 16 16 18 16
30 0 10 -14 14 -14 28 -3 22 19 20 52 -6 91 -30 44 -42 46 -66 12z"/>
<path d="M871 120 c10 -27 16 -56 13 -63 -3 -10 2 -14 18 -14 20 0 24 5 25 33
1 18 8 47 16 63 14 29 14 31 -3 31 -13 0 -17 -5 -13 -20 4 -16 0 -20 -22 -20
-22 0 -26 4 -22 20 4 15 0 20 -13 20 -17 0 -17 -2 1 -50z m42 -31 c-4 -16 -8
-17 -14 -7 -13 19 -11 28 5 28 9 0 12 -7 9 -21z"/>
</g>
</svg>
