<?xml version="1.0" standalone="no"?>
<!DOCTYPE svg PUBLIC "-//W3C//DTD SVG 20010904//EN"
 "http://www.w3.org/TR/2001/REC-SVG-20010904/DTD/svg10.dtd">
<svg version="1.0" xmlns="http://www.w3.org/2000/svg"
 width="99.000000pt" height="137.000000pt" viewBox="0 0 99.000000 137.000000"
 preserveAspectRatio="xMidYMid meet">

<g transform="translate(0.000000,137.000000) scale(0.100000,-0.100000)"
fill="#000000" stroke="none">
<path d="M75 1280 c-11 -5 -14 -9 -7 -9 16 -1 16 -93 0 -109 -9 -9 -8 -12 8
-12 14 0 20 7 19 23 0 12 5 22 10 22 6 0 10 -10 10 -22 -1 -18 5 -23 25 -22
14 0 20 3 13 5 -7 3 -17 21 -23 40 -10 29 -9 39 4 59 20 30 20 32 1 32 -8 0
-15 -8 -15 -17 0 -10 -8 -24 -17 -31 -15 -13 -16 -11 -10 19 4 17 5 32 4 31
-1 0 -11 -4 -22 -9z"/>
<path d="M170 660 l0 -560 355 0 355 0 1 48 c1 77 1 1046 0 1060 -1 9 -79 12
-356 12 l-355 0 0 -560z m224 503 l36 -46 71 2 c43 1 76 -2 85 -9 7 -7 20 -10
29 -7 16 7 45 -17 45 -38 0 -8 4 -16 9 -19 5 -4 7 3 4 13 -4 17 0 20 26 19 27
-1 31 -4 26 -22 -5 -19 -5 -19 5 -3 13 21 9 73 -5 70 -5 -1 -13 -12 -17 -25
-7 -20 -7 -20 -4 4 2 15 -2 29 -8 31 -6 3 5 21 23 41 32 33 39 36 93 36 l58 0
0 -135 c0 -74 -2 -135 -4 -135 -3 0 -18 14 -34 30 -19 19 -25 30 -16 30 8 0
14 3 14 8 0 4 -18 7 -40 7 -22 0 -39 -3 -37 -8 1 -5 6 -8 10 -8 10 2 67 -28
67 -35 0 -3 -4 -3 -9 0 -5 3 -15 -1 -22 -10 -12 -14 -14 -14 -26 2 -10 14 -15
15 -28 4 -13 -11 -14 -10 -8 5 5 16 3 15 -15 -3 -14 -14 -29 -19 -47 -16 -14
2 -33 0 -43 -5 -21 -11 -48 2 -38 18 11 18 29 13 21 -6 -5 -14 -3 -15 6 -6 6
6 8 16 5 22 -10 16 -34 13 -44 -5 -5 -9 -12 -15 -15 -15 -24 3 -41 0 -32 -7 6
-4 11 -14 13 -22 1 -9 -5 -7 -17 8 -23 26 -28 27 -47 7 -27 -26 -50 -18 -70
26 -10 23 -20 36 -22 29 -3 -7 6 -30 18 -52 12 -21 19 -46 16 -54 -3 -8 -2
-13 3 -10 11 7 37 -56 45 -107 3 -20 8 -53 12 -72 3 -20 9 -33 15 -30 5 4 9 1
9 -4 0 -6 -6 -11 -13 -11 -9 0 -14 -15 -15 -47 -2 -61 -31 -155 -45 -146 -6 3
-7 1 -3 -5 9 -15 -21 -72 -38 -72 -8 0 -17 6 -20 13 -5 10 -7 10 -12 0 -6 -13
-44 -19 -44 -7 0 3 11 19 25 36 27 32 30 43 15 53 -5 3 -10 11 -10 18 0 6 6 2
14 -8 13 -18 15 -16 36 26 17 31 24 65 26 117 3 81 -2 86 -56 50 -69 -48 -92
-152 -50 -225 21 -37 21 -38 1 -14 -17 19 -28 22 -55 18 -39 -6 -76 1 -76 15
0 5 8 5 18 -1 10 -6 29 -7 41 -4 21 5 21 8 -21 51 -24 25 -36 41 -28 35 13
-10 15 -2 15 60 0 61 3 72 18 75 17 3 18 -4 16 -87 -1 -76 1 -95 16 -111 26
-29 35 -25 25 11 -11 39 2 103 28 138 17 23 43 44 98 77 11 7 15 15 10 20 -5
5 -11 4 -13 -3 -10 -28 -83 -6 -83 24 0 40 66 56 90 22 8 -11 21 -28 28 -37
12 -15 13 -14 7 8 -3 14 -8 34 -9 45 -5 29 -5 29 -19 17 -7 -6 -17 -8 -23 -4
-19 13 -54 83 -48 94 4 6 2 8 -3 5 -6 -4 -16 0 -23 8 -7 8 -17 15 -23 15 -5 0
-2 -9 8 -20 10 -11 16 -22 14 -24 -2 -2 -24 -16 -49 -31 -25 -15 -56 -37 -70
-49 l-25 -21 25 29 c14 16 44 41 68 56 24 16 38 31 32 35 -12 7 -67 -24 -95
-55 -10 -11 -22 -20 -26 -20 -4 0 -8 86 -9 190 l-1 190 89 0 89 0 37 -47z
m330 33 c-3 -8 -16 -17 -30 -20 -13 -4 -24 -11 -24 -16 0 -6 -4 -10 -10 -10
-5 0 -10 6 -10 14 0 8 -4 17 -9 20 -15 9 -40 -4 -35 -19 4 -9 -2 -11 -20 -8
-15 3 -23 10 -20 18 8 20 -16 29 -33 12 -10 -10 -11 -17 -4 -21 6 -4 11 -2 11
5 0 7 3 9 7 6 8 -9 -26 -47 -43 -47 -7 0 -15 4 -18 9 -4 5 2 7 13 4 10 -3 22
0 25 6 4 6 0 11 -11 11 -10 0 -24 10 -32 22 l-14 22 -18 -23 c-17 -21 -20 -21
-35 -7 -8 9 -20 16 -25 16 -5 0 -9 5 -9 10 0 6 65 10 175 10 146 0 173 -2 169
-14z m-254 -31 c0 -8 -10 -19 -21 -26 -21 -11 -21 -11 -3 15 22 30 24 31 24
11z m121 -33 c-7 -2 -18 1 -23 6 -8 8 -4 9 13 5 13 -4 18 -8 10 -11z m99 -27
c0 -8 -4 -15 -9 -15 -13 0 -22 16 -14 24 11 11 23 6 23 -9z m-20 -187 c0 -9 3
-9 12 0 7 7 23 12 37 12 l24 0 -23 -25 c-12 -13 -27 -22 -33 -18 -6 3 -7 1 -4
-5 4 -5 -4 -32 -18 -59 -23 -46 -43 -126 -36 -148 1 -5 3 -22 3 -37 1 -34 6
-34 49 -5 49 32 82 100 75 156 -4 25 -13 56 -22 69 -9 13 -13 26 -10 29 3 3
10 -6 16 -19 11 -23 14 -24 50 -15 28 8 45 7 62 -1 22 -12 22 -12 -7 -8 -16 2
-42 2 -57 -1 -26 -5 -27 -8 -21 -49 8 -64 -32 -142 -89 -174 -24 -13 -46 -28
-50 -34 -4 -6 -12 -11 -18 -11 -18 0 -11 -34 23 -105 11 -25 20 -48 19 -52 -1
-3 5 -12 13 -18 8 -7 15 -19 15 -26 0 -16 16 -19 25 -4 3 6 1 10 -5 10 -6 0
-15 10 -20 23 -6 12 -14 29 -18 37 -32 55 -35 64 -23 68 9 3 7 9 -4 22 -13 15
-14 23 -5 39 11 21 49 29 64 14 4 -5 13 -8 19 -8 7 0 13 -10 15 -22 2 -17 -2
-23 -15 -23 -10 0 -26 -7 -36 -14 -16 -12 -17 -18 -7 -38 24 -45 41 -58 61
-47 11 5 19 7 19 4 0 -2 10 3 22 13 11 9 38 31 58 47 20 17 12 7 -18 -22 -31
-28 -58 -52 -61 -51 -21 2 -29 -5 -27 -26 0 -14 6 -22 13 -19 7 3 10 10 6 16
-4 7 0 8 13 3 10 -4 15 -4 11 0 -8 8 11 34 25 34 5 0 6 -5 2 -12 -4 -7 -3 -8
5 -4 6 4 9 12 6 17 -6 8 9 13 28 10 5 -1 6 3 3 7 -3 5 3 17 14 27 20 18 20 17
20 -173 l0 -191 -275 -1 c-151 0 -275 2 -275 4 0 10 74 49 77 40 11 -31 21
-38 37 -25 9 8 15 21 14 29 -2 9 5 18 15 20 20 4 47 -14 47 -32 0 -6 -4 -5 -9
3 -6 10 -10 10 -16 1 -10 -16 10 -34 30 -26 10 3 15 15 13 28 -2 16 3 23 17
25 l20 3 -20 -9 c-19 -9 -19 -10 3 -10 13 -1 21 -5 18 -10 -3 -5 1 -14 10 -21
20 -18 45 3 26 22 -9 9 -12 8 -13 -8 0 -11 -3 -14 -6 -6 -3 7 1 19 7 27 14 17
35 21 25 5 -3 -5 2 -10 11 -10 10 0 14 -3 11 -7 -4 -3 2 -13 14 -21 32 -22 32
-9 0 33 l-28 38 -75 -2 c-59 -2 -79 1 -92 14 -9 9 -16 12 -16 6 0 -6 -5 -11
-11 -11 -5 0 -7 6 -3 13 5 8 3 8 -9 -2 -14 -11 -18 -11 -23 3 -4 10 -17 15
-40 14 -29 -1 -34 -5 -34 -25 0 -18 5 -23 25 -23 l26 0 -32 -40 c-32 -39 -34
-40 -96 -40 l-63 0 0 130 c0 72 3 130 6 130 4 0 12 -7 18 -15 10 -13 14 -13
38 -1 18 9 30 11 34 5 3 -6 12 -8 20 -5 8 3 14 0 14 -7 1 -7 6 -5 14 5 9 13
31 18 79 20 37 2 67 6 67 11 0 4 7 7 15 7 8 0 15 6 15 13 1 6 11 0 23 -15 20
-24 24 -25 41 -12 33 24 62 17 78 -17 12 -23 17 -27 21 -15 4 9 3 16 -2 16 -8
0 -64 107 -75 147 -4 11 -13 27 -21 33 -18 15 -19 6 -3 -20 11 -17 8 -24 -17
-50 -16 -17 -35 -28 -43 -25 -7 3 -10 0 -7 -6 4 -6 -1 -19 -11 -30 -13 -14
-20 -16 -31 -8 -15 13 -18 33 -3 24 6 -3 7 1 4 9 -3 9 -2 16 4 16 5 0 9 8 8
18 -1 12 6 17 26 16 15 -1 25 3 22 8 -3 4 -11 5 -17 2 -7 -4 7 13 31 37 34 36
42 52 42 82 0 27 -4 37 -16 37 -8 0 -12 5 -9 10 4 6 11 8 16 5 5 -4 9 12 9 35
0 25 4 39 10 35 6 -3 10 -15 10 -26 0 -11 5 -17 10 -14 6 3 10 15 10 26 0 11
-4 18 -9 15 -14 -9 -32 20 -25 40 21 63 69 154 80 154 8 0 14 -5 14 -12z m-66
-35 c-21 -50 -105 -137 -116 -120 -13 21 -9 41 15 67 41 46 55 54 72 40 9 -8
15 -8 15 -2 0 6 -6 13 -12 16 -10 5 -10 7 0 12 6 3 10 10 6 15 -3 5 4 9 15 9
19 0 19 -2 5 -37z m-254 -23 c0 -5 -5 -10 -11 -10 -5 0 -7 5 -4 10 3 6 8 10
11 10 2 0 4 -4 4 -10z m-56 -32 c-50 -37 -60 -41 -24 -9 19 17 38 31 43 31 6
0 -3 -10 -19 -22z m400 -12 c-3 -9 -10 -13 -15 -10 -5 3 -3 11 4 19 15 16 19
13 11 -9z m176 -130 c0 -88 -12 -80 -14 10 0 37 -5 69 -11 71 -6 2 -9 -23 -8
-64 2 -37 -2 -72 -8 -80 -9 -10 -6 -13 15 -13 32 0 32 -6 4 -39 -13 -14 -15
-19 -5 -12 9 8 20 11 23 9 5 -6 -84 -84 -128 -111 -51 -32 -43 -17 10 18 51
35 67 53 37 41 -8 -3 -15 0 -15 7 0 8 -4 7 -10 -3 -7 -12 -12 -12 -22 -2 -6 6
-8 12 -2 12 5 0 10 11 10 25 1 16 -2 23 -10 19 -6 -3 0 4 14 15 14 11 32 21
40 21 12 0 15 17 14 99 -1 55 -5 105 -9 113 -5 7 11 -5 34 -27 40 -38 41 -40
41 -109z m-130 109 c0 -8 -3 -16 -7 -18 -5 -3 -8 5 -8 18 0 13 3 21 8 18 4 -2
7 -10 7 -18z m-423 -3 c10 -6 10 -12 -2 -28 -19 -25 -19 -35 2 -27 11 4 14 3
9 -5 -13 -21 -34 -13 -40 15 -5 17 -3 29 6 34 8 6 9 9 2 9 -6 0 -17 -7 -24
-15 -10 -12 -10 -18 0 -30 18 -22 5 -48 -20 -40 -33 10 -50 -17 -50 -80 0 -35
-4 -54 -10 -50 -21 13 -5 162 17 158 5 -1 10 4 10 12 0 11 -5 12 -21 3 -19 -9
-18 -8 4 16 13 15 29 25 35 22 7 -2 18 0 26 5 17 11 40 11 56 1z m378 -22 c3
-5 1 -10 -4 -10 -6 0 -11 5 -11 10 0 6 2 10 4 10 3 0 8 -4 11 -10z m41 -36
c-4 -9 -9 -15 -11 -12 -3 3 -3 13 1 22 4 9 9 15 11 12 3 -3 3 -13 -1 -22z
m-76 -38 c0 -3 -4 -8 -10 -11 -5 -3 -10 -1 -10 4 0 6 5 11 10 11 6 0 10 -2 10
-4z m60 -13 c0 -2 -8 -3 -17 -1 -10 1 -25 -2 -33 -7 -13 -7 -13 -6 -2 7 11 14
52 15 52 1z m-180 3 c0 -3 -4 -8 -10 -11 -5 -3 -10 -1 -10 4 0 6 5 11 10 11 6
0 10 -2 10 -4z m-130 -20 c0 -2 -9 -6 -20 -9 -11 -3 -18 -1 -14 4 5 9 34 13
34 5z m275 -15 c-3 -6 -14 -10 -23 -10 -15 1 -15 2 1 6 9 2 17 9 17 15 0 6 3
9 6 5 3 -3 3 -10 -1 -16z m-337 -31 c-7 -10 -14 -17 -17 -15 -4 4 18 35 25 35
2 0 -1 -9 -8 -20z m61 11 c9 -6 10 -11 2 -15 -6 -4 -11 -1 -11 6 0 7 -12 0
-25 -15 -29 -32 -33 -27 -7 8 19 27 21 28 41 16z m131 5 c0 -3 -4 -8 -10 -11
-5 -3 -10 -1 -10 4 0 6 5 11 10 11 6 0 10 -2 10 -4z m-141 -58 c-12 -23 -21
-24 -12 -1 5 12 3 14 -7 8 -8 -5 -11 -4 -7 2 3 5 13 10 21 10 11 0 13 -5 5
-19z m-72 -8 c-1 -12 -5 -16 -10 -11 -5 5 -6 14 -3 20 11 16 15 13 13 -9z m47
-31 c-3 -5 -10 -7 -15 -3 -5 3 -7 10 -3 15 3 5 10 7 15 3 5 -3 7 -10 3 -15z
m-34 -53 c0 -6 -7 -1 -15 10 -8 10 -15 23 -15 28 0 6 7 1 15 -10 8 -10 15 -23
15 -28z m75 -306 c3 -6 -1 -7 -9 -4 -18 7 -21 14 -7 14 6 0 13 -4 16 -10z"/>
<path d="M300 1170 c-17 -17 -21 -18 -26 -5 -4 9 -18 15 -35 15 -22 0 -32 -6
-39 -24 -12 -34 1 -73 45 -135 l38 -53 23 29 c13 15 35 51 49 79 28 55 24 95
-10 108 -23 8 -23 8 -45 -14z"/>
<path d="M753 1138 c-1 -14 3 -18 17 -13 11 3 29 1 40 -5 12 -7 24 -9 27 -6 3
3 -7 10 -23 17 -16 6 -36 15 -44 19 -12 5 -16 2 -17 -12z"/>
<path d="M774 1098 c-5 -8 25 -24 46 -23 18 1 40 13 40 23 0 9 -80 9 -86 0z"/>
<path d="M430 1081 c0 -12 -6 -21 -12 -21 -10 0 -9 -3 1 -9 11 -7 11 -9 0 -14
-10 -4 -10 -6 -1 -6 14 -1 17 -31 2 -31 -5 0 -10 -5 -10 -12 0 -6 3 -8 7 -5 3
4 12 2 20 -5 11 -9 13 -4 7 30 -5 35 -4 42 10 42 9 0 16 -5 16 -12 0 -9 3 -9
11 -1 6 6 9 21 7 34 -4 33 -58 41 -58 10z"/>
<path d="M516 1083 c-4 -9 0 -23 9 -32 9 -10 15 -11 15 -3 0 6 6 9 14 6 8 -3
19 3 25 14 8 16 7 21 -5 26 -28 11 -52 6 -58 -11z"/>
<path d="M746 1055 c-6 -16 19 -33 31 -21 4 3 1 6 -6 6 -7 0 -10 4 -6 9 3 5 1
12 -4 15 -5 3 -12 -1 -15 -9z"/>
<path d="M620 1050 c0 -19 5 -24 23 -25 21 -2 21 -3 -3 18 -11 9 -20 12 -20 7z"/>
<path d="M814 1045 c-4 -8 -10 -12 -15 -9 -5 3 -9 0 -9 -5 0 -21 33 -6 38 17
3 17 -7 15 -14 -3z"/>
<path d="M680 1021 c0 -5 5 -13 10 -16 6 -3 10 -2 10 4 0 5 -4 13 -10 16 -5 3
-10 2 -10 -4z"/>
<path d="M488 1013 c7 -3 16 -2 19 1 4 3 -2 6 -13 5 -11 0 -14 -3 -6 -6z"/>
<path d="M483 979 c11 -7 23 -7 35 0 14 9 11 10 -18 10 -29 0 -32 -1 -17 -10z"/>
<path d="M350 941 c0 -5 7 -11 14 -14 10 -4 13 -1 9 9 -6 15 -23 19 -23 5z"/>
<path d="M380 900 c0 -5 5 -10 10 -10 6 0 10 5 10 10 0 6 -4 10 -10 10 -5 0
-10 -4 -10 -10z"/>
<path d="M450 696 c0 -9 5 -16 10 -16 6 0 10 4 10 9 0 6 -4 13 -10 16 -5 3
-10 -1 -10 -9z"/>
<path d="M450 655 c0 -8 5 -15 10 -15 6 0 10 7 10 15 0 8 -4 15 -10 15 -5 0
-10 -7 -10 -15z"/>
<path d="M447 613 c-3 -5 -2 -15 2 -22 7 -10 10 -10 16 -1 4 6 3 16 -3 22 -5
5 -12 6 -15 1z"/>
<path d="M436 554 c-4 -10 -1 -24 7 -32 12 -12 14 -10 12 13 -2 15 -5 29 -8
31 -2 3 -8 -3 -11 -12z"/>
<path d="M420 489 c0 -11 5 -17 10 -14 6 3 10 13 10 21 0 8 -4 14 -10 14 -5 0
-10 -9 -10 -21z"/>
<path d="M390 434 c0 -8 5 -12 10 -9 6 3 10 10 10 16 0 5 -4 9 -10 9 -5 0 -10
-7 -10 -16z"/>
<path d="M646 884 c-8 -21 -8 -24 3 -24 5 0 11 9 14 20 6 24 -8 27 -17 4z"/>
<path d="M622 837 c-9 -11 -10 -17 -2 -22 15 -9 23 -1 18 21 -3 15 -4 16 -16
1z"/>
<path d="M606 781 c-4 -7 -5 -15 -2 -18 9 -9 19 4 14 18 -4 11 -6 11 -12 0z"/>
<path d="M587 666 c-3 -8 -2 -18 3 -21 13 -8 20 9 11 24 -6 10 -10 9 -14 -3z"/>
<path d="M586 615 c4 -8 10 -12 15 -9 14 8 10 24 -6 24 -9 0 -12 -6 -9 -15z"/>
<path d="M525 519 c-4 -6 -3 -15 3 -21 6 -6 11 -4 15 6 7 18 -9 31 -18 15z"/>
<path d="M485 370 c-3 -5 -2 -10 4 -10 5 0 13 5 16 10 3 6 2 10 -4 10 -5 0
-13 -4 -16 -10z"/>
<path d="M432 340 c10 -15 14 -16 25 -5 18 18 17 20 -11 21 -21 2 -23 -1 -14
-16z"/>
<path d="M247 330 c-8 -11 -17 -17 -21 -13 -4 4 -5 -11 -4 -34 3 -37 18 -52
18 -17 0 8 10 14 26 14 19 0 25 -4 21 -15 -9 -22 8 -26 21 -4 10 15 10 19 0
17 -7 -2 -12 5 -10 14 1 9 -7 22 -18 28 -11 6 -18 15 -15 21 12 18 -4 9 -18
-11z m20 -36 c-3 -3 -12 -4 -19 -1 -8 3 -5 6 6 6 11 1 17 -2 13 -5z"/>
<path d="M722 283 c-44 -69 -49 -91 -32 -124 13 -23 53 -25 71 -3 11 14 13 14
21 0 11 -19 49 -21 66 -4 24 24 13 73 -29 136 -23 34 -44 62 -48 62 -3 0 -25
-30 -49 -67z"/>
<path d="M530 330 c0 -5 11 -10 25 -10 14 0 25 5 25 10 0 6 -11 10 -25 10 -14
0 -25 -4 -25 -10z"/>
<path d="M613 306 c1 -23 8 -41 15 -44 11 -3 12 0 2 17 -9 17 -8 26 2 39 8 9
8 13 1 9 -6 -4 -14 -1 -17 5 -3 7 -4 -5 -3 -26z"/>
<path d="M548 303 c7 -3 16 -2 19 1 4 3 -2 6 -13 5 -11 0 -14 -3 -6 -6z"/>
<path d="M418 283 c7 -3 16 -2 19 1 4 3 -2 6 -13 5 -11 0 -14 -3 -6 -6z"/>
<path d="M514 273 c5 -9 -1 -13 -18 -13 -14 0 -26 -4 -26 -9 0 -11 28 -41 38
-41 12 0 38 20 27 20 -5 0 -4 4 3 8 9 7 7 13 -9 28 -13 10 -19 13 -15 7z"/>
<path d="M570 253 c0 -29 3 -33 26 -33 21 0 25 4 22 23 -2 12 -10 22 -18 22
-8 0 -18 5 -22 10 -4 6 -8 -5 -8 -22z"/>
<path d="M228 233 c-31 -8 -19 -23 18 -23 24 0 34 4 32 13 -5 13 -24 17 -50
10z"/>
<path d="M225 186 c17 -7 44 -16 60 -19 17 -3 25 -4 18 -1 -7 3 -9 13 -6 22 6
15 5 15 -10 3 -14 -11 -23 -12 -43 -2 -14 6 -30 11 -37 11 -7 -1 2 -7 18 -14z"/>
<path d="M458 163 c7 -3 16 -2 19 1 4 3 -2 6 -13 5 -11 0 -14 -3 -6 -6z"/>
<path d="M536 842 c-3 -5 1 -9 9 -9 8 0 15 4 15 9 0 4 -4 8 -9 8 -6 0 -12 -4
-15 -8z"/>
<path d="M520 808 c0 -4 4 -8 9 -8 6 0 12 4 15 8 3 5 -1 9 -9 9 -8 0 -15 -4
-15 -9z"/>
<path d="M496 778 c3 -5 10 -6 15 -3 13 9 11 12 -6 12 -8 0 -12 -4 -9 -9z"/>
<path d="M774 559 c0 -10 4 -19 8 -19 4 0 8 6 8 14 0 8 -4 17 -8 20 -4 2 -8
-4 -8 -15z"/>
<path d="M805 530 c-3 -5 -1 -10 4 -10 6 0 11 5 11 10 0 6 -2 10 -4 10 -3 0
-8 -4 -11 -10z"/>
<path d="M63 1104 c-5 -14 33 -84 46 -84 12 0 44 69 38 83 -7 19 -76 20 -84 1z"/>
<path d="M925 280 c-26 -51 -21 -68 25 -68 31 -1 40 3 40 16 0 17 -35 82 -45
82 -2 0 -11 -13 -20 -30z"/>
<path d="M900 173 c0 -5 7 -17 15 -27 19 -25 19 -60 0 -80 -8 -8 -15 -17 -15
-20 0 -3 7 -6 15 -6 8 0 15 6 15 13 0 7 7 22 16 33 15 18 15 17 10 -13 -5 -29
-3 -33 15 -33 16 0 19 3 12 12 -11 13 -9 101 2 118 3 6 -2 10 -13 10 -15 0
-18 -5 -15 -24 3 -13 0 -26 -5 -30 -12 -7 -26 29 -17 44 3 5 -3 10 -14 10 -12
0 -21 -3 -21 -7z"/>
</g>
</svg>
