<?xml version="1.0" standalone="no"?>
<!DOCTYPE svg PUBLIC "-//W3C//DTD SVG 20010904//EN"
 "http://www.w3.org/TR/2001/REC-SVG-20010904/DTD/svg10.dtd">
<svg version="1.0" xmlns="http://www.w3.org/2000/svg"
 width="100.000000pt" height="137.000000pt" viewBox="0 0 100.000000 137.000000"
 preserveAspectRatio="xMidYMid meet">

<g transform="translate(0.000000,137.000000) scale(0.100000,-0.100000)"
fill="#000000" stroke="none">
<path d="M128 1230 c3 -51 1 -60 -14 -60 -9 0 -23 8 -31 18 -13 16 -14 16 -11
-2 4 -24 30 -41 52 -33 12 5 16 20 16 60 0 29 5 58 12 65 9 9 8 12 -7 12 -18
0 -20 -6 -17 -60z"/>
<path d="M178 863 c-1 -203 -2 -453 -2 -558 l-1 -190 330 -1 c182 0 293 1 248
3 l-83 4 -22 39 c-16 28 -28 38 -39 34 -25 -7 -105 -7 -118 0 -6 4 -11 18 -11
32 0 13 -4 24 -9 24 -4 0 -6 -12 -3 -26 5 -26 4 -26 -39 -20 -23 3 -46 12 -51
18 -6 10 -8 9 -8 -3 0 -9 -14 -35 -30 -57 -30 -41 -31 -42 -90 -42 -60 0 -65
4 -60 40 2 19 4 21 27 24 10 2 17 10 15 20 -5 27 17 18 37 -15 20 -32 37 -20
19 14 -6 12 -5 19 7 23 8 3 15 11 15 16 0 6 -6 8 -13 5 -10 -4 -12 6 -10 36
l3 42 -29 -35 -30 -35 -1 78 c0 55 4 77 12 77 7 0 -2 10 -19 22 -37 26 -39 33
-18 54 13 14 15 13 15 -10 0 -27 15 -35 23 -13 3 6 6 2 6 -9 1 -13 9 -24 23
-27 17 -5 19 -9 9 -21 -16 -20 -3 -26 64 -32 53 -4 55 -3 55 21 l0 25 108 -2
c59 0 92 -3 74 -5 -27 -4 -33 -8 -30 -26 5 -33 46 -38 88 -9 19 13 34 29 32
35 -6 21 -34 47 -44 41 -5 -3 0 -13 11 -21 24 -17 27 -30 6 -30 -8 0 -12 4 -8
9 3 5 -4 16 -16 24 -12 9 -21 26 -21 42 0 22 -2 24 -11 12 -9 -13 -10 -13 -6
2 3 9 1 18 -6 21 -6 2 -12 21 -12 43 0 39 0 39 -37 36 -40 -4 -48 7 -22 28 12
11 15 11 12 -1 -4 -18 24 -18 30 0 3 8 0 11 -6 7 -5 -3 -13 2 -17 12 -12 29
-15 71 -5 77 6 3 7 -1 4 -9 -4 -9 -1 -16 6 -16 8 0 11 -9 8 -24 -4 -19 -1 -23
16 -20 12 3 16 2 10 -1 -14 -7 -6 -45 8 -45 6 0 8 -14 5 -35 -4 -24 -2 -33 5
-29 6 4 8 3 5 -3 -4 -6 0 -16 8 -23 8 -7 15 -21 15 -31 0 -11 5 -19 10 -19 13
0 13 16 -1 43 -9 19 -8 20 3 5 7 -10 24 -36 38 -58 27 -45 29 -46 56 -25 18
14 18 16 2 26 -10 5 -18 17 -18 24 0 17 -11 19 -28 5 -8 -7 -9 -7 -3 1 4 5 6
21 3 34 -4 22 -8 24 -41 20 -26 -3 -30 -2 -16 4 11 5 24 6 28 4 5 -3 7 8 6 25
-2 18 3 38 13 49 34 37 42 94 22 157 -6 19 -7 19 -20 1 -8 -10 -14 -15 -14
-10 0 5 7 17 16 27 16 17 18 17 30 0 8 -9 14 -43 14 -78 0 -49 -5 -68 -25 -98
l-25 -37 25 -49 c29 -57 39 -63 33 -21 -2 17 -1 28 3 26 8 -6 21 24 14 34 -2
5 8 20 24 35 27 26 29 26 34 7 4 -17 0 -21 -19 -21 -28 0 -31 -12 -8 -35 15
-15 18 -14 34 12 9 15 28 37 41 48 22 18 21 17 -2 -10 -15 -17 -34 -43 -42
-60 -9 -16 -16 -24 -17 -17 0 9 -7 11 -22 6 -32 -9 -33 -12 -15 -31 8 -10 16
-22 16 -28 0 -5 4 -11 10 -13 6 -2 11 1 11 7 0 6 6 11 14 11 8 0 16 7 20 15 6
17 26 21 26 5 0 -5 -10 -18 -22 -30 -21 -19 -21 -20 -2 -20 18 -1 18 -1 2 -14
-10 -7 -15 -16 -12 -19 4 -4 -12 -9 -34 -13 -48 -8 -48 -23 -1 -18 37 5 62 22
52 37 -4 6 0 8 9 5 11 -5 14 -1 10 17 -2 12 1 25 6 29 5 3 10 -4 10 -17 -1
-12 0 -91 1 -174 2 -84 -1 -158 -5 -164 -4 -7 -1 -10 7 -7 12 4 14 94 13 559
l-1 554 -346 3 -347 2 -2 -367z m226 319 l26 -38 65 4 c62 4 65 3 75 -22 5
-14 14 -26 20 -26 7 0 8 6 1 19 -10 18 -8 19 32 14 23 -3 44 -7 46 -9 2 -2 20
19 38 47 l34 50 62 -3 c60 -3 62 -4 59 -28 -4 -27 -21 -52 -31 -46 -3 2 -6
-44 -5 -102 1 -59 -3 -112 -7 -118 -6 -7 1 -16 16 -24 27 -15 34 -40 10 -40
-8 0 -15 5 -15 10 0 6 -7 10 -15 10 -8 0 -15 7 -15 16 0 8 -5 12 -10 9 -9 -6
-15 8 -11 29 2 9 -18 26 -31 26 -5 0 -8 -12 -8 -26 0 -17 -6 -28 -20 -31 -11
-3 -17 -10 -13 -16 3 -5 1 -7 -5 -3 -6 4 -12 -3 -14 -16 -2 -13 -13 -27 -25
-33 -14 -6 -23 -19 -23 -31 0 -14 -12 -29 -34 -42 -19 -12 -33 -15 -30 -9 2 7
14 17 27 22 13 6 23 21 25 37 2 18 11 28 28 32 17 5 24 13 24 31 0 18 8 28 25
35 32 12 32 33 0 50 -13 7 -22 17 -19 22 6 9 -33 12 -106 9 -44 -2 -44 -2 -22
14 12 9 22 27 22 41 0 21 -2 23 -14 12 -8 -7 -10 -16 -5 -19 10 -6 -21 -36
-59 -57 -18 -10 -27 -10 -37 -2 -11 9 -19 7 -37 -9 -12 -12 -47 -35 -76 -52
-30 -17 -52 -33 -49 -35 3 -3 14 -1 24 4 15 9 19 7 20 -10 1 -13 -2 -17 -10
-11 -7 4 -23 8 -36 8 -20 0 -24 -5 -26 -36 -1 -21 -15 -56 -32 -82 -31 -45
-29 -67 5 -67 11 0 13 8 9 29 -5 24 -3 28 12 24 23 -6 38 14 22 30 -16 16 -14
27 7 27 13 0 17 -8 16 -37 -1 -29 -5 -37 -18 -35 -9 2 -16 -3 -16 -11 0 -7
-11 -23 -25 -35 -14 -13 -24 -26 -21 -30 2 -4 -7 -8 -20 -8 -13 -1 -24 2 -24
7 0 5 5 8 12 7 17 -4 21 28 6 43 -12 10 -10 16 9 37 25 27 59 109 49 119 -3 4
-22 -8 -41 -27 l-34 -33 -1 212 0 211 93 0 94 0 27 -38z m34 22 c5 -9 15 -14
21 -10 6 4 9 12 6 17 -4 5 -1 9 4 9 6 0 11 -2 11 -4 0 -2 3 -11 6 -20 5 -12
-1 -16 -23 -16 -28 0 -53 15 -53 32 0 14 19 9 28 -8z m82 6 c0 -14 43 -13 58
2 9 9 12 7 12 -10 0 -19 -5 -22 -40 -22 -22 0 -40 2 -40 4 0 2 -3 11 -6 20 -3
9 -1 16 5 16 6 0 11 -4 11 -10z m116 -5 c-9 -25 23 -30 40 -6 8 11 20 21 25
21 6 0 1 -13 -10 -29 -16 -22 -26 -27 -46 -23 -14 2 -27 8 -30 12 -7 12 5 40
17 40 6 0 7 -7 4 -15z m-106 -255 c0 -11 -7 -20 -15 -20 -8 0 -15 9 -15 20 0
11 7 20 15 20 8 0 15 -9 15 -20z m63 0 c-3 -11 -11 -20 -17 -20 -6 0 -12 9
-12 20 0 12 7 20 17 20 12 0 16 -6 12 -20z m70 0 c-3 -11 -12 -20 -19 -20 -8
0 -14 9 -14 20 0 13 7 20 19 20 14 0 18 -5 14 -20z m-205 -7 c-1 -10 10 -43
25 -73 15 -30 29 -71 32 -90 4 -20 -4 -6 -18 33 -28 80 -52 111 -44 59 3 -19
12 -41 20 -50 18 -20 26 -57 12 -57 -5 0 -8 8 -7 19 2 10 -6 27 -17 37 -18 17
-26 38 -22 61 0 4 -8 12 -19 18 -26 14 -25 10 5 -50 28 -55 29 -60 15 -60 -6
0 -9 3 -8 8 4 16 -14 52 -24 46 -7 -4 -8 -2 -4 4 11 19 -12 52 -31 45 -15 -6
-16 -5 -3 9 8 9 18 14 23 11 4 -2 7 1 7 7 0 7 7 5 16 -4 17 -17 34 -21 34 -8
0 4 -5 13 -11 19 -12 12 -4 33 12 33 6 0 9 -8 7 -17z m299 -47 c-7 -17 16 -39
28 -28 5 4 6 0 3 -8 -3 -9 0 -24 8 -34 11 -16 16 -17 29 -6 22 18 35 -1 35
-54 0 -29 -3 -37 -14 -33 -10 4 -13 1 -9 -8 3 -8 8 -13 12 -11 4 3 8 -4 8 -15
1 -11 -5 -19 -13 -19 -10 0 -13 -7 -9 -23 6 -22 4 -23 -27 -19 -18 3 -27 7
-20 9 6 3 10 9 7 14 -4 5 2 6 11 2 13 -5 16 -3 11 10 -3 9 -2 19 2 22 19 11
-27 132 -64 168 -13 14 -12 47 2 47 3 0 3 -6 0 -14z m63 -53 c0 -20 -3 -24
-11 -16 -7 7 -9 19 -6 27 10 24 17 19 17 -11z m-490 -10 l1 -28 14 25 c8 14
14 21 15 16 0 -5 8 -2 18 5 11 9 13 9 6 1 -13 -15 -7 -62 8 -62 5 0 6 -5 2
-11 -4 -8 -14 1 -25 22 l-17 34 -8 -30 -7 -30 -14 33 c-7 17 -18 32 -23 32 -6
0 -10 5 -10 10 0 6 9 10 20 10 15 0 20 -7 20 -27z m-25 -13 c3 -5 1 -10 -4
-10 -6 0 -11 5 -11 10 0 6 2 10 4 10 3 0 8 -4 11 -10z m104 -87 c-36 -34 -42
-46 -46 -90 -3 -29 0 -66 6 -83 8 -24 8 -31 -2 -27 -18 6 -30 72 -23 121 4 25
17 55 30 69 13 14 21 29 18 32 -4 3 1 3 9 0 9 -3 22 1 29 10 7 8 15 14 17 11
2 -2 -15 -22 -38 -43z m265 -24 c-1 -25 -5 -34 -17 -33 -10 1 -17 -2 -17 -7 0
-5 5 -9 10 -9 6 0 10 -7 10 -15 0 -8 -7 -15 -15 -15 -8 0 -15 5 -15 11 0 5 -4
7 -10 4 -5 -3 -10 -11 -10 -16 0 -6 4 -8 9 -5 5 3 11 -5 13 -19 5 -24 -7 -45
-26 -45 -6 0 -2 7 8 15 11 8 17 15 13 15 -19 0 -23 3 -30 22 -5 14 -1 31 13
53 11 18 20 42 20 53 0 20 16 33 35 28 6 -2 10 -18 9 -37z m-218 6 c4 -17 1
-32 -9 -43 -8 -9 -17 -30 -19 -46 -2 -23 -9 -30 -30 -33 -27 -4 -38 10 -18 22
6 3 10 1 10 -5 0 -6 5 -8 10 -5 6 3 10 13 10 21 0 8 -4 12 -10 9 -21 -13 -31
7 -14 26 9 11 15 22 12 25 -6 6 32 51 44 53 4 1 10 -10 14 -24z m54 10 c-7 -8
-16 -13 -20 -10 -5 3 -11 0 -13 -5 -3 -6 -4 -5 -2 2 1 7 8 12 14 11 6 -2 11 2
11 7 0 6 5 10 11 10 8 0 8 -5 -1 -15z m55 -6 c4 -11 4 -23 0 -27 -7 -7 -25 17
-25 36 0 20 18 14 25 -9z m45 12 c0 -6 -4 -13 -10 -16 -5 -3 -10 1 -10 9 0 9
5 16 10 16 6 0 10 -4 10 -9z m-100 -85 c0 -2 -6 -9 -13 -15 -10 -8 -14 -7 -14
4 0 8 6 15 14 15 7 0 13 -2 13 -4z m-265 -81 c10 -27 29 -65 42 -83 20 -27 23
-36 13 -45 -10 -9 -12 -8 -6 6 4 14 0 20 -14 24 -11 3 -17 9 -14 14 2 5 -2 19
-10 32 -17 25 -50 126 -37 111 4 -5 16 -31 26 -59z m228 18 c-3 -7 -9 -13 -13
-13 -5 0 -16 -7 -24 -16 -9 -8 -16 -11 -16 -5 0 6 9 15 20 21 11 6 20 16 19
23 -3 29 3 42 10 22 5 -11 6 -26 4 -32z m347 43 c0 -3 -4 -8 -10 -11 -5 -3
-10 -1 -10 4 0 6 5 11 10 11 6 0 10 -2 10 -4z m-604 -49 c3 -17 13 -41 20 -52
17 -23 18 -35 4 -35 -5 0 -10 7 -10 16 0 8 -4 13 -9 10 -16 -11 -32 22 -30 62
3 47 14 46 25 -1z m194 -11 c0 -3 -4 -8 -10 -11 -5 -3 -10 -1 -10 4 0 6 5 11
10 11 6 0 10 -2 10 -4z m455 -56 c2 -22 -11 -27 -18 -7 -5 15 3 40 11 32 3 -3
6 -14 7 -25z m-445 -5 c-7 -8 -19 -15 -26 -15 -8 0 -14 -10 -14 -25 0 -18 -7
-28 -25 -35 -14 -5 -30 -20 -35 -32 -10 -23 -10 -23 -7 2 1 15 12 29 27 37 14
7 26 18 26 25 1 7 2 18 3 24 0 7 12 15 26 18 14 4 25 12 25 18 0 6 3 8 6 5 4
-4 1 -13 -6 -22z m285 -65 c3 -6 -1 -7 -9 -4 -18 7 -21 14 -7 14 6 0 13 -4 16
-10z m-85 -52 c0 -4 -7 -8 -15 -8 -8 0 -15 4 -15 8 0 5 7 9 15 9 8 0 15 -4 15
-9z m-350 -158 c0 -5 -2 -10 -4 -10 -3 0 -8 5 -11 10 -3 6 -1 10 4 10 6 0 11
-4 11 -10z m168 -83 c-2 -11 -9 -22 -17 -25 -9 -3 -11 0 -6 8 4 7 2 16 -6 21
-21 13 -27 11 -34 -11 -3 -11 -13 -20 -21 -20 -12 0 -11 5 5 28 16 24 26 28
51 24 25 -3 30 -9 28 -25z m106 -3 c4 -9 3 -20 0 -23 -4 -3 -9 0 -11 7 -3 6
-15 12 -28 12 -13 0 -25 -6 -28 -12 -2 -7 -8 -10 -12 -6 -4 4 -5 14 -2 23 9
21 73 20 81 -1z m86 1 c7 -9 10 -19 6 -23 -4 -4 -14 1 -21 12 -14 18 -41 13
-29 -6 4 -6 1 -9 -7 -6 -8 3 -15 12 -17 21 -4 22 50 23 68 2z"/>
<path d="M320 1192 c-8 -3 -20 -12 -26 -20 -9 -13 -12 -13 -17 2 -7 19 -48 21
-65 4 -23 -23 -13 -70 29 -135 23 -35 44 -63 48 -63 7 0 76 107 85 133 14 43
-19 91 -54 79z"/>
<path d="M762 1138 c1 -18 -4 -34 -10 -36 -8 -2 -7 -9 4 -19 10 -10 13 -25 10
-39 -4 -14 -2 -24 4 -24 5 0 10 7 10 15 0 8 9 20 20 27 11 7 20 22 20 33 0 11
-9 26 -20 33 -11 7 -20 19 -20 27 0 8 -4 15 -9 15 -5 0 -9 -14 -9 -32z m38
-50 c0 -11 -12 -10 -30 2 -12 7 -10 9 8 7 12 0 22 -5 22 -9z"/>
<path d="M459 1137 c-10 -29 7 -77 17 -50 3 7 11 10 19 7 18 -7 28 11 12 23
-12 10 -46 24 -48 20z"/>
<path d="M630 1084 c0 -13 18 -39 24 -34 2 3 -2 14 -10 24 -8 11 -14 16 -14
10z"/>
<path d="M438 1053 c7 -3 16 -2 19 1 4 3 -2 6 -13 5 -11 0 -14 -3 -6 -6z"/>
<path d="M470 1030 c8 -5 20 -10 25 -10 6 0 3 5 -5 10 -8 5 -19 10 -25 10 -5
0 -3 -5 5 -10z"/>
<path d="M630 1021 c0 -6 5 -13 10 -16 6 -3 10 1 10 9 0 9 -4 16 -10 16 -5 0
-10 -4 -10 -9z"/>
<path d="M660 1021 c0 -6 4 -13 10 -16 6 -3 7 1 4 9 -7 18 -14 21 -14 7z"/>
<path d="M440 1010 c0 -5 7 -7 15 -4 8 4 15 8 15 10 0 2 -7 4 -15 4 -8 0 -15
-4 -15 -10z"/>
<path d="M716 988 c3 -4 9 -8 15 -8 5 0 9 4 9 8 0 5 -7 9 -15 9 -8 0 -12 -4
-9 -9z"/>
<path d="M231 933 c-8 -9 -16 -28 -17 -42 -1 -14 -5 -37 -9 -51 -6 -24 -6 -24
9 -5 8 11 21 26 27 34 9 10 9 15 -1 21 -21 13 13 40 49 40 17 0 31 5 31 10 0
17 -74 11 -89 -7z"/>
<path d="M816 787 c3 -10 9 -15 12 -12 3 3 0 11 -7 18 -10 9 -11 8 -5 -6z"/>
<path d="M825 690 c-3 -6 1 -7 9 -4 18 7 21 14 7 14 -6 0 -13 -4 -16 -10z"/>
<path d="M640 710 c0 -5 5 -10 10 -10 6 0 10 5 10 10 0 6 -4 10 -10 10 -5 0
-10 -4 -10 -10z"/>
<path d="M433 713 c-15 -5 -17 -23 -4 -23 5 0 11 7 15 15 3 8 4 15 3 14 -1 0
-8 -3 -14 -6z"/>
<path d="M406 671 c-4 -7 -5 -15 -2 -18 9 -9 19 4 14 18 -4 11 -6 11 -12 0z"/>
<path d="M80 1125 c-10 -13 -9 -23 5 -55 10 -22 22 -40 26 -40 12 0 39 55 39
80 0 15 -5 20 -17 18 -10 -1 -23 1 -29 5 -7 4 -17 0 -24 -8z"/>
<path d="M730 455 c7 -8 16 -12 21 -9 13 8 1 24 -18 24 -13 0 -13 -3 -3 -15z"/>
<path d="M419 408 c-9 -30 -5 -38 17 -38 17 0 24 6 24 20 0 13 -7 20 -20 20
-11 0 -20 -1 -21 -2z"/>
<path d="M490 396 c0 -8 -6 -17 -12 -19 -7 -3 1 -6 18 -6 20 -1 34 5 38 15 9
23 8 24 -19 24 -15 0 -25 -6 -25 -14z"/>
<path d="M307 347 c-3 -7 5 -13 19 -13 29 -2 30 2 5 15 -14 8 -20 7 -24 -2z"/>
<path d="M388 353 c12 -2 20 -9 17 -14 -4 -5 0 -9 9 -9 8 0 17 -6 20 -12 3 -7
3 -3 0 10 -4 16 -1 22 11 22 10 0 13 -5 9 -12 -6 -9 -3 -9 9 1 10 8 27 11 41
7 14 -3 28 -2 31 4 4 6 -25 10 -82 9 -48 -1 -78 -4 -65 -6z"/>
<path d="M713 293 c-47 -72 -53 -111 -25 -136 25 -23 38 -21 56 5 13 18 16 19
21 6 10 -25 35 -30 63 -12 20 13 23 21 19 51 -5 31 -75 153 -87 153 -3 -1 -24
-31 -47 -67z"/>
<path d="M481 308 c-15 -43 -8 -45 11 -3 8 19 12 35 8 35 -5 0 -13 -14 -19
-32z"/>
<path d="M565 320 c-11 -5 -15 -9 -9 -9 6 -1 21 -10 34 -21 12 -11 28 -16 34
-13 7 5 5 9 -7 11 -13 3 -16 9 -12 23 7 21 -6 24 -40 9z"/>
<path d="M411 304 c0 -11 3 -14 6 -6 3 7 2 16 -1 19 -3 4 -6 -2 -5 -13z"/>
<path d="M356 295 c4 -8 8 -15 10 -15 2 0 4 7 4 15 0 8 -4 15 -10 15 -5 0 -7
-7 -4 -15z"/>
<path d="M912 277 c-26 -40 -27 -51 -8 -66 10 -9 16 -9 21 -1 5 8 11 7 22 -1
12 -10 16 -10 24 2 12 19 12 19 -15 63 l-23 38 -21 -35z"/>
<path d="M442 280 c0 -14 2 -19 5 -12 2 6 2 18 0 25 -3 6 -5 1 -5 -13z"/>
<path d="M410 249 c0 -11 4 -18 10 -14 5 3 7 12 3 20 -7 21 -13 19 -13 -6z"/>
<path d="M368 253 c7 -3 16 -2 19 1 4 3 -2 6 -13 5 -11 0 -14 -3 -6 -6z"/>
<path d="M555 251 c-19 -8 -19 -8 3 -15 12 -4 22 -12 22 -17 0 -6 -9 -5 -22 1
-22 11 -22 10 -4 -4 11 -9 28 -16 37 -16 14 0 16 5 10 27 -8 30 -17 35 -46 24z"/>
<path d="M906 158 c-3 -13 -7 -43 -9 -68 -3 -37 -1 -46 12 -47 13 -1 16 10 16
60 0 49 3 62 17 65 9 2 18 -5 21 -15 4 -14 5 -13 6 5 1 18 -4 22 -29 22 -23 0
-31 -5 -34 -22z"/>
</g>
</svg>
