<?xml version="1.0" standalone="no"?>
<!DOCTYPE svg PUBLIC "-//W3C//DTD SVG 20010904//EN"
 "http://www.w3.org/TR/2001/REC-SVG-20010904/DTD/svg10.dtd">
<svg version="1.0" xmlns="http://www.w3.org/2000/svg"
 width="99.000000pt" height="138.000000pt" viewBox="0 0 99.000000 138.000000"
 preserveAspectRatio="xMidYMid meet">

<g transform="translate(0.000000,138.000000) scale(0.100000,-0.100000)"
fill="#000000" stroke="none">
<path d="M91 1274 c-26 -43 -26 -54 -3 -54 26 0 34 -11 21 -27 -9 -10 -7 -13
9 -13 16 0 20 4 15 16 -3 9 0 20 8 25 10 6 10 9 2 9 -8 0 -13 15 -13 40 0 49
-12 51 -39 4z m19 -19 c0 -15 -6 -25 -15 -25 -12 0 -13 4 -3 25 6 14 13 25 15
25 1 0 3 -11 3 -25z"/>
<path d="M212 1257 c-35 -42 -14 -125 46 -181 27 -25 34 -27 47 -16 37 31 78
103 79 140 1 64 -42 91 -79 50 l-18 -20 -14 20 c-16 23 -45 26 -61 7z"/>
<path d="M690 1255 c-17 -21 -16 -85 3 -120 8 -17 30 -43 47 -60 l32 -30 39
44 c50 56 69 113 48 150 -19 34 -52 39 -73 9 l-16 -22 -16 22 c-18 26 -46 29
-64 7z"/>
<path d="M67 1153 c-14 -14 -6 -53 16 -79 l23 -27 22 28 c34 43 24 106 -13 75
-9 -7 -15 -8 -20 0 -7 12 -19 13 -28 3z"/>
<path d="M263 303 c-50 -54 -69 -112 -51 -151 16 -33 43 -40 69 -16 18 16 20
16 38 0 26 -24 53 -17 70 18 19 40 2 91 -48 147 l-39 44 -39 -42z"/>
<path d="M763 321 c-42 -35 -73 -92 -73 -135 0 -23 5 -47 12 -54 19 -19 56
-14 69 9 l11 21 15 -22 c10 -14 23 -20 41 -18 60 7 48 120 -21 185 -31 31 -33
31 -54 14z"/>
<path d="M901 304 c-23 -29 -26 -50 -11 -74 7 -12 12 -12 21 -3 9 9 16 9 25 2
38 -31 47 45 10 80 l-24 22 -21 -27z"/>
<path d="M906 189 c3 -6 0 -15 -7 -20 -10 -7 -11 -11 -2 -17 6 -4 13 -25 15
-47 l3 -40 28 43 c30 46 28 62 -5 62 -14 0 -18 5 -14 15 3 9 0 15 -10 15 -9 0
-12 -5 -8 -11z m44 -47 c0 -5 -7 -17 -15 -28 -14 -18 -14 -18 -15 9 0 17 5 27
15 27 8 0 15 -4 15 -8z"/>
</g>
</svg>
