<?xml version="1.0" standalone="no"?>
<!DOCTYPE svg PUBLIC "-//W3C//DTD SVG 20010904//EN"
 "http://www.w3.org/TR/2001/REC-SVG-20010904/DTD/svg10.dtd">
<svg version="1.0" xmlns="http://www.w3.org/2000/svg"
 width="99.000000pt" height="138.000000pt" viewBox="0 0 99.000000 138.000000"
 preserveAspectRatio="xMidYMid meet">

<g transform="translate(0.000000,138.000000) scale(0.100000,-0.100000)"
fill="#000000" stroke="none">
<path d="M94 1296 c-3 -9 -3 -23 0 -32 4 -9 1 -22 -5 -30 -15 -18 -3 -51 21
-57 35 -9 49 13 47 73 -2 52 -4 55 -30 58 -18 2 -29 -2 -33 -12z m52 -7 c3 -6
0 -17 -7 -25 -18 -17 -44 -2 -36 20 7 18 33 21 43 5z m-1 -74 c0 -13 -8 -21
-22 -23 -17 -3 -23 2 -23 16 0 10 3 22 7 26 13 13 38 1 38 -19z"/>
<path d="M220 1251 c-18 -35 -11 -85 19 -133 38 -60 62 -74 89 -50 39 33 72
94 72 132 0 60 -56 94 -81 49 l-11 -21 -19 21 c-25 26 -55 27 -69 2z"/>
<path d="M706 1248 c-32 -45 -15 -104 48 -171 21 -22 29 -26 45 -18 34 18 81
101 81 142 0 61 -43 89 -77 49 -17 -19 -17 -19 -30 0 -19 26 -48 25 -67 -2z"/>
<path d="M82 1143 c-11 -20 7 -75 28 -88 15 -9 47 20 55 52 8 32 -12 58 -31
42 -11 -9 -18 -8 -28 0 -12 10 -17 9 -24 -6z"/>
<path d="M220 950 c-38 -38 -24 -104 36 -170 l37 -41 34 33 c19 18 41 45 49
60 33 64 1 153 -47 128 -11 -6 -23 -18 -26 -27 -5 -14 -7 -13 -15 1 -18 31
-46 38 -68 16z"/>
<path d="M712 957 c-37 -44 -21 -115 39 -173 l41 -39 39 44 c21 24 43 59 48
78 20 71 -32 131 -71 83 l-19 -23 -15 21 c-17 24 -46 29 -62 9z"/>
<path d="M266 598 c-48 -55 -63 -105 -45 -144 18 -37 52 -43 73 -12 l16 22 16
-22 c38 -55 94 4 74 78 -10 38 -72 120 -90 120 -5 0 -25 -19 -44 -42z"/>
<path d="M759 613 c-43 -48 -62 -85 -62 -125 0 -64 41 -89 78 -48 18 20 18 20
33 -1 19 -28 54 -21 71 15 11 23 11 36 2 68 -11 36 -74 118 -90 118 -4 0 -19
-12 -32 -27z"/>
<path d="M288 313 c-67 -72 -86 -145 -48 -183 23 -23 50 -15 69 18 6 9 11 11
11 5 0 -7 11 -20 25 -29 24 -16 27 -16 45 1 24 22 27 83 6 123 -8 15 -30 42
-48 60 l-34 32 -26 -27z"/>
<path d="M750 293 c-56 -68 -64 -149 -18 -174 19 -10 25 -8 44 14 l21 25 20
-26 c19 -26 20 -26 46 -9 22 14 27 25 27 58 0 22 -5 50 -11 62 -16 31 -71 87
-85 87 -7 0 -26 -17 -44 -37z"/>
<path d="M922 305 c-34 -43 -24 -106 12 -75 11 8 15 8 18 -1 2 -7 11 -10 21
-6 24 9 21 51 -6 83 l-23 27 -22 -28z"/>
<path d="M2 260 c0 -14 2 -19 5 -12 2 6 2 18 0 25 -3 6 -5 1 -5 -13z"/>
<path d="M910 180 c-6 -11 -7 -26 -3 -33 4 -6 8 -25 8 -41 0 -35 26 -56 48
-37 11 8 15 29 14 69 -2 54 -3 57 -29 60 -19 2 -30 -3 -38 -18z m55 -15 c0
-13 -8 -21 -22 -23 -17 -3 -23 2 -23 16 0 10 3 22 7 26 13 13 38 1 38 -19z m0
-65 c0 -8 -10 -16 -22 -18 -18 -3 -23 2 -23 18 0 16 5 21 23 18 12 -2 22 -10
22 -18z"/>
</g>
</svg>
